<svg preserveAspectRatio="none" width="100%" height="100%" overflow="visible" style="display: block;" viewBox="0 0 35.9202 33.1553" fill="none" xmlns="http://www.w3.org/2000/svg">
<path id="A" d="M21.7857 21.1183H9.5104L8.1756 24.1693C7.53999 25.663 7.22218 26.8945 7.22218 27.8638C7.22218 28.6901 7.40492 29.4052 7.7704 30.009C8.15177 30.5969 8.70793 31.0895 9.43889 31.4868C10.1857 31.8682 11.163 32.178 12.3707 32.4164V33.1553H0V32.4402C1.4937 31.9317 2.77287 31.0419 3.83753 29.7706C4.91807 28.4994 6.05424 26.5211 7.24602 23.8356L17.7813 0H18.4011L29.866 25.7663C29.8978 25.7822 29.9216 25.8298 29.9375 25.9093C29.9693 25.9728 30.0011 26.0443 30.0328 26.1238C30.0805 26.2032 30.1282 26.2906 30.1758 26.386L31.2246 28.555C31.7967 29.715 32.4482 30.589 33.1791 31.1769C33.9101 31.7649 34.8238 32.178 35.9202 32.4164V33.1553H20.7131V32.4164C22.0002 32.321 22.9219 32.1701 23.478 31.9635C24.6222 31.5345 25.1942 30.7876 25.1942 29.723C25.1942 29.1986 24.94 28.3405 24.4315 27.1487L21.7857 21.1183ZM21.3328 20.1172L15.5885 7.17451L9.93944 20.1172H21.3328ZM16.089 6.14958L25.2657 26.815L25.5041 27.3394C25.9967 28.4041 26.243 29.1827 26.243 29.6753C26.243 30.3586 25.8537 31.1134 25.075 31.9397H31.3676C30.6526 31.2723 30.0328 30.5095 29.5084 29.6515C28.9841 28.7775 28.3723 27.5698 27.6731 26.0285L17.4476 3.02712L16.089 6.14958ZM7.74656 31.9397C7.20629 31.2882 6.82492 30.7082 6.60246 30.1997C6.37999 29.6753 6.26876 29.1112 6.26876 28.5074C6.26876 28.2372 6.2767 28.0227 6.29259 27.8638C5.79999 28.8172 5.31533 29.5879 4.83862 30.1758C4.36191 30.7479 3.71835 31.3358 2.90794 31.9397H7.74656Z" fill="var(--fill-0, white)"/>
</svg>
