<svg preserveAspectRatio="none" width="100%" height="100%" overflow="visible" style="display: block;" viewBox="0 0 62.2456 59.4035" fill="none" xmlns="http://www.w3.org/2000/svg">
<g id="Group 1">
<path id="Vector 1" d="M5.92809 31.4828C5.64234 16.6715 15.8896 9.51588 21.049 7.78948C21.7633 7.78948 24.6208 8.38479 24.6208 8.14666C25.4781 8.14666 25.7321 7.51167 25.7519 7.19417L25.2161 4.7534C25.0256 3.9914 24.0255 4.15809 23.5493 4.33668L20.3346 6.53933L19.7988 6.71792C6.03524 12.9091 3.94372 25.9266 4.61841 31.6614C4.80891 37.3288 7.51558 42.2381 8.84511 43.9843C8.65461 44.7463 8.92448 45.3337 9.08323 45.5321C16.4651 53.8665 22.2991 55.2952 29.4428 55.7119C35.1578 56.0453 41.0315 53.1918 43.254 51.7234C49.35 47.4848 50.3184 44.8376 50.0406 44.0439C52.9576 41.5436 54.5649 32.1972 54.3863 32.1972C55.3983 24.3986 50.9335 16.6596 50.8145 16.5405C47.2902 10.6827 41.0117 7.31323 38.3129 6.36073C37.4001 5.68605 35.5507 4.33668 35.4555 4.33668C34.4077 3.86043 33.7886 4.41605 33.61 4.7534L33.1933 7.19417C33.2885 7.95616 34.2648 8.14666 34.7411 8.14666L38.1939 7.78948L39.6226 8.38479C49.9096 13.5283 52.8782 23.585 53.0766 27.9705C53.6481 34.9713 50.5366 41.0872 48.9095 43.27C48.2427 43.27 47.7188 43.7859 47.5403 44.0439C43.635 49.235 37.9756 51.644 35.6341 52.1996C22.6325 55.3905 13.9052 47.8538 11.1668 43.6867C10.8334 43.3057 10.2342 43.2501 9.9762 43.27C7.11871 39.6505 6.08684 33.9037 5.92809 31.4828Z" fill="var(--fill-0, white)"/>
<path id="Vector 2" d="M1.64341 33.6266C4.59615 52.6289 20.4155 57.8954 27.9561 58.1534V55.534H29.3849V59.4035H27.9561C19.6813 59.2845 11.8232 53.9862 11.8232 53.629C1.58388 46.8187 -0.30127 33.7655 0.0360723 28.0902C1.51244 8.32594 18.3518 1.28144 26.5869 0.229722C39.8742 -1.48477 49.2682 6.81782 52.3043 11.1834C57.0668 16.1364 58.694 24.7962 58.9122 28.5069V51.0097H57.4835V28.5069C57.4359 21.0775 53.3362 14.3783 51.2923 11.9573C34.6712 -5.80672 17.1016 2.76971 10.3945 9.27843C1.72675 16.7079 0.948882 28.6062 1.64341 33.6266Z" fill="var(--fill-0, white)"/>
<circle id="Ellipse 1" cx="58.1382" cy="54.9981" r="1.84546" fill="var(--fill-0, white)"/>
<circle id="Ellipse 2" cx="58.138" cy="54.9979" r="3.39327" stroke="var(--stroke-0, white)" stroke-width="1.42874"/>
</g>
</svg>
