<svg xmlns="http://www.w3.org/2000/svg" width="1200" height="800" viewBox="0 0 1200 800" fill="none">
  <defs>
    <linearGradient id="bg" x1="0" y1="0" x2="1200" y2="800" gradientUnits="userSpaceOnUse">
      <stop stop-color="#17299a"/><stop offset="1" stop-color="#070c36"/>
    </linearGradient>
    <radialGradient id="glow" cx="600" cy="330" r="420" gradientUnits="userSpaceOnUse">
      <stop stop-color="#6b8aff" stop-opacity="0.4"/><stop offset="1" stop-color="#6b8aff" stop-opacity="0"/>
    </radialGradient>
  </defs>
  <rect width="1200" height="800" fill="url(#bg)"/>
  <rect width="1200" height="800" fill="url(#glow)"/>
  <g stroke="#ffffff" stroke-opacity="0.06">
    <circle cx="1085" cy="115" r="120"/><circle cx="1085" cy="115" r="195"/><circle cx="1085" cy="115" r="280"/>
  </g>
  <path d="M-20 648 H432 l38 -66 30 142 42 -200 34 154 40 -48 H1220" stroke="#ffffff" stroke-opacity="0.08" stroke-width="3"/>
  <circle cx="600" cy="330" r="118" fill="#ffffff" fill-opacity="0.07" stroke="#6b8aff" stroke-opacity="0.55" stroke-width="2"/>
  <g transform="translate(600 330) scale(3.9) translate(-12 -12)" stroke="#ffffff" stroke-width="1.7" stroke-linecap="round" stroke-linejoin="round">
    <circle cx="12" cy="12" r="10"/><path d="m4.93 4.93 4.24 4.24"/><path d="m14.83 9.17 4.24-4.24"/><path d="m14.83 14.83 4.24 4.24"/><path d="m9.17 14.83-4.24 4.24"/><circle cx="12" cy="12" r="4"/>
  </g>
  <text x="600" y="542" text-anchor="middle" fill="#6b8aff" font-family="Arial, Helvetica, sans-serif" font-size="31" font-weight="700" letter-spacing="5">NURSING REGISTRATION</text>
  <text x="600" y="702" text-anchor="middle" fill="#ffffff" fill-opacity="0.5" font-family="Arial, Helvetica, sans-serif" font-size="21" font-weight="700" letter-spacing="4">AXON CAREERS</text>
</svg>