<svg xmlns="http://www.w3.org/2000/svg" width="1200" height="800" viewBox="0 0 1200 800" fill="none">
  <defs>
    <linearGradient id="bg" x1="0" y1="0" x2="1200" y2="800" gradientUnits="userSpaceOnUse">
      <stop stop-color="#17299a"/><stop offset="1" stop-color="#070c36"/>
    </linearGradient>
    <radialGradient id="glow" cx="600" cy="330" r="420" gradientUnits="userSpaceOnUse">
      <stop stop-color="#c08cff" stop-opacity="0.4"/><stop offset="1" stop-color="#c08cff" stop-opacity="0"/>
    </radialGradient>
  </defs>
  <rect width="1200" height="800" fill="url(#bg)"/>
  <rect width="1200" height="800" fill="url(#glow)"/>
  <g stroke="#ffffff" stroke-opacity="0.06">
    <circle cx="1085" cy="115" r="120"/><circle cx="1085" cy="115" r="195"/><circle cx="1085" cy="115" r="280"/>
  </g>
  <path d="M-20 648 H432 l38 -66 30 142 42 -200 34 154 40 -48 H1220" stroke="#ffffff" stroke-opacity="0.08" stroke-width="3"/>
  <circle cx="600" cy="330" r="118" fill="#ffffff" fill-opacity="0.07" stroke="#c08cff" stroke-opacity="0.55" stroke-width="2"/>
  <g transform="translate(600 330) scale(3.9) translate(-12 -12)" stroke="#ffffff" stroke-width="1.7" stroke-linecap="round" stroke-linejoin="round">
    <path d="M17.8 19.2 16 11l3.5-3.5C21 6 21.5 4 21 3c-1-.5-3 0-4.5 1.5L13 8 4.8 6.2c-.5-.1-.9.1-1.1.5l-.3.5c-.2.5-.1 1 .3 1.3L9 12l-2 3H4l-1 1 3 2 2 3 1-1v-3l3-2 3.5 5.3c.3.4.8.5 1.3.3l.5-.2c.4-.3.6-.7.5-1.2z"/>
  </g>
  <text x="600" y="542" text-anchor="middle" fill="#c08cff" font-family="Arial, Helvetica, sans-serif" font-size="31" font-weight="700" letter-spacing="5">IMMIGRATION &amp; PR</text>
  <text x="600" y="702" text-anchor="middle" fill="#ffffff" fill-opacity="0.5" font-family="Arial, Helvetica, sans-serif" font-size="21" font-weight="700" letter-spacing="4">AXON CAREERS</text>
</svg>